<svg width="100" height="100" viewBox="0 0 100 100" fill="none" xmlns="http://www.w3.org/2000/svg">
<rect width="100" height="100" rx="50" fill="url(#paint0_linear_22_5)"/>
<path d="M29.7713 57H26.4759L31.4972 42.4545H35.4602L40.4744 57H37.179L33.5355 45.7784H33.4219L29.7713 57ZM29.5653 51.2827H37.3494V53.6832H29.5653V51.2827ZM47.7844 42.4545V57H44.7092V45.3736H44.6239L41.293 47.4616V44.7344L44.8938 42.4545H47.7844ZM57.5696 42.4545V57H54.4943V45.3736H54.4091L51.0781 47.4616V44.7344L54.679 42.4545H57.5696ZM60.2596 42.4545H63.7042L67.021 48.7188H67.163L70.4798 42.4545H73.9244L68.619 51.858V57H65.565V51.858L60.2596 42.4545Z" fill="white"/>
<path d="M26.7585 60.2727H29.0341L31.4375 66.1364H31.5398L33.9432 60.2727H36.2188V69H34.429V63.3196H34.3565L32.098 68.9574H30.8793L28.6207 63.2983H28.5483V69H26.7585V60.2727ZM37.4066 61.794V60.2727H44.5742V61.794H41.9023V69H40.0785V61.794H37.4066ZM50.489 62.7827C50.4549 62.4389 50.3086 62.1719 50.0501 61.9815C49.7915 61.7912 49.4407 61.696 48.9975 61.696C48.6964 61.696 48.4421 61.7386 48.2347 61.8239C48.0273 61.9062 47.8683 62.0213 47.7575 62.169C47.6495 62.3168 47.5955 62.4844 47.5955 62.6719C47.5898 62.8281 47.6225 62.9645 47.6935 63.081C47.7674 63.1974 47.8683 63.2983 47.9961 63.3835C48.1239 63.4659 48.2717 63.5384 48.4393 63.6009C48.6069 63.6605 48.7859 63.7116 48.9762 63.7543L49.7603 63.9418C50.141 64.027 50.4904 64.1406 50.8086 64.2827C51.1268 64.4247 51.4023 64.5994 51.6353 64.8068C51.8683 65.0142 52.0487 65.2585 52.1765 65.5398C52.3072 65.821 52.3739 66.1435 52.3768 66.5071C52.3739 67.0412 52.2376 67.5043 51.9677 67.8963C51.7006 68.2855 51.3143 68.5881 50.8086 68.804C50.3058 69.017 49.6992 69.1236 48.989 69.1236C48.2844 69.1236 47.6708 69.0156 47.1481 68.7997C46.6282 68.5838 46.2219 68.2642 45.9293 67.8409C45.6396 67.4148 45.4876 66.8878 45.4734 66.2599H47.2589C47.2788 66.5526 47.3626 66.7969 47.5103 66.9929C47.6609 67.1861 47.8612 67.3324 48.1112 67.4318C48.364 67.5284 48.6495 67.5767 48.9677 67.5767C49.2802 67.5767 49.5515 67.5312 49.7816 67.4403C50.0146 67.3494 50.195 67.223 50.3228 67.0611C50.4506 66.8991 50.5146 66.7131 50.5146 66.5028C50.5146 66.3068 50.4563 66.142 50.3398 66.0085C50.2262 65.875 50.0586 65.7614 49.837 65.6676C49.6183 65.5739 49.3498 65.4886 49.0316 65.4119L48.0813 65.1733C47.3455 64.9943 46.7646 64.7145 46.3384 64.3338C45.9123 63.9531 45.7006 63.4403 45.7035 62.7955C45.7006 62.267 45.8413 61.8054 46.1254 61.4105C46.4123 61.0156 46.8058 60.7074 47.3058 60.4858C47.8058 60.2642 48.3739 60.1534 49.0103 60.1534C49.658 60.1534 50.2234 60.2642 50.7063 60.4858C51.1921 60.7074 51.57 61.0156 51.8398 61.4105C52.1097 61.8054 52.2489 62.2628 52.2575 62.7827H50.489Z" fill="#FF0000"/>
<defs>
<linearGradient id="paint0_linear_22_5" x1="24.5" y1="-1.42142e-06" x2="76" y2="100" gradientUnits="userSpaceOnUse">
<stop/>
<stop offset="1" stop-color="#310000"/>
</linearGradient>
</defs>
</svg>
